<?xml version="1.0" encoding="utf-8"?>
<!-- Generator: Adobe Illustrator 18.1.1, SVG Export Plug-In . SVG Version: 6.00 Build 0)  -->
<svg version="1.1" id="Layer_1" xmlns="http://www.w3.org/2000/svg" xmlns:xlink="http://www.w3.org/1999/xlink" x="0px" y="0px"
	 viewBox="0 0 113 61" enable-background="new 0 0 113 61" xml:space="preserve">
<g>
	<path fill="#FFFFFF" d="M56.5,60.7c-0.6,0-1.2-0.2-1.7-0.7L1,4.2C0.1,3.3,0.1,1.8,1,1S3.4,0.1,4.3,1l53.9,55.7
		c0.9,0.9,0.9,2.4-0.1,3.3C57.7,60.5,57.1,60.7,56.5,60.7z"/>
	<path fill="#FFFFFF" d="M56.5,60.7c-0.6,0-1.2-0.2-1.6-0.7c-0.9-0.9-0.9-2.3-0.1-3.3L108.7,1c0.9-0.9,2.3-0.9,3.3-0.1
		c0.9,0.9,0.9,2.3,0.1,3.3L58.2,60C57.7,60.4,57.1,60.7,56.5,60.7z"/>
</g>
</svg>
