<svg width="512" height="512" xmlns="http://www.w3.org/2000/svg">

 <g>
  <title>background</title>
  <rect fill="none" id="canvas_background" height="402" width="582" y="-1" x="-1"/>
 </g>
 <g>
  <title>Layer 1</title>
  <path fill="#ffffff" id="svg_6" d="m256,59c26.602,0 52.399,5.207 76.677,15.475c23.456,9.921 44.526,24.128 62.623,42.225c18.098,18.098 32.304,39.167 42.226,62.624c10.268,24.277 15.474,50.074 15.474,76.676c0,26.602 -5.206,52.399 -15.475,76.677c-9.922,23.456 -24.128,44.526 -42.226,62.623c-18.097,18.098 -39.167,32.304 -62.623,42.226c-24.277,10.268 -50.074,15.474 -76.676,15.474c-26.602,0 -52.399,-5.206 -76.676,-15.475c-23.457,-9.922 -44.526,-24.128 -62.624,-42.226c-18.097,-18.097 -32.304,-39.167 -42.225,-62.623c-10.268,-24.277 -15.475,-50.074 -15.475,-76.676c0,-26.602 5.207,-52.399 15.475,-76.676c9.921,-23.457 24.128,-44.526 42.225,-62.624c18.098,-18.097 39.167,-32.304 62.624,-42.225c24.277,-10.268 50.074,-15.475 76.676,-15.475m0,-16c-117.637,0 -213,95.363 -213,213s95.363,213 213,213s213,-95.363 213,-213s-95.363,-213 -213,-213l0,0z"/>
  <path fill="#ffffff" id="svg_8" d="m210.999,351c-1.251,0 -2.508,-0.293 -3.663,-0.888c-2.663,-1.372 -4.336,-4.117 -4.336,-7.112l0,-174c0,-2.996 1.673,-5.74 4.336,-7.112c2.663,-1.373 5.869,-1.141 8.309,0.598l122,87c2.105,1.502 3.355,3.928 3.355,6.514s-1.25,5.012 -3.355,6.514l-122,87c-1.382,0.985 -3.01,1.486 -4.646,1.486zm8.001,-166.469l0,142.939l100.222,-71.47l-100.222,-71.469z"/>
  <path id="svg_10" d="m212.1516,186.02916l2.42566,-12.50146l47.58017,33.586l51.31196,37.31779l17.72595,8.3965l-26.12245,24.25656l-53.17785,34.51895l-33.586,24.25656l-10.26239,-7.46356l4.10495,-142.36734z" stroke-opacity="null" stroke-width="null" stroke="null" fill="#ffffff"/>
 </g>
</svg>