<?xml version="1.0" encoding="utf-8"?>
<!-- Generator: Adobe Illustrator 21.0.0, SVG Export Plug-In . SVG Version: 6.00 Build 0)  -->
<svg version="1.1"
	 id="svg17" xmlns:cc="http://creativecommons.org/ns#" xmlns:dc="http://purl.org/dc/elements/1.1/" xmlns:rdf="http://www.w3.org/1999/02/22-rdf-syntax-ns#" xmlns:svg="http://www.w3.org/2000/svg"
	 xmlns="http://www.w3.org/2000/svg" xmlns:xlink="http://www.w3.org/1999/xlink" x="0px" y="0px" viewBox="0 0 645 364"
	 style="enable-background:new 0 0 645 364;" xml:space="preserve">
<style type="text/css">
	.st0{fill:#D7B369;}
	.st1{fill:#1B1918;}
	.st2{fill:none;stroke:#1B1918;stroke-width:2.8889;}
</style>
<g id="Layer1000">
	<path id="path2" class="st0" d="M14.6,67.3c63.1,0,114.5,65.4,114.5,145.6c0,80.2-51.4,145.6-114.5,145.6c-2.9,0-5.7-0.1-8.5-0.4
		c59.1-5.5,106-68.6,106-145.2S65.2,73.2,6.1,67.7C8.9,67.4,11.7,67.3,14.6,67.3z"/>
	<path id="path4" class="st1" d="M15.4,37.6c69.5,0,126.1,72.1,126.1,160.4c0,88.3-56.7,160.4-126.1,160.4c-3.1,0-6.3-0.2-9.3-0.4
		c65.1-6.1,116.8-75.6,116.8-160S71.2,44.1,6.1,38C9.2,37.7,12.3,37.6,15.4,37.6L15.4,37.6z"/>
	<path id="path6" class="st0" d="M16.4,4.9c76.6,0,139,79.4,139,176.8s-62.4,176.8-139,176.8c-3.5,0-6.9-0.2-10.3-0.5
		c71.8-6.7,128.7-83.3,128.7-176.3S77.9,12.1,6.1,5.4C9.5,5,12.9,4.9,16.4,4.9z"/>
	<path id="path8" class="st2" d="M182.1,225h455.1"/>
	<path id="path10" class="st0" d="M182.2,211.9h8.8v-24.6h12.7c4.2,0,7,2.1,7.1,9.6l-0.1,1.6v13.3h9.1v-16.1c0-8.6-2.4-13.6-8-14.2
		v-0.4c1.9-0.7,4-1.3,5.6-3.4c2.9-3.9,3-11,3-16.6c0-17.4-4.5-22.6-15.3-22.6h-22.9L182.2,211.9z M190.9,175.6v-24.8h13.3
		c6.7,0,6.9,4.5,6.9,13.5c0,8.2-2,11.3-7.5,11.3H190.9z M262.4,160v-2.9c0-18.6-8.3-18.9-18-18.9c-2.5,0-4.9,0.1-7.4,0.4
		c-8.2,1-11.2,7.6-11.2,19.9c0,20.3,6.5,20.5,17.4,21.7c6.5,0.5,11.6-1.3,11.6,10.1c0,9-2.4,10.5-8,10.5c-2.3,0-4.5,0-6.8-0.1
		c-5.3-0.1-5.7-5.6-5.7-12.4h-8.5c0,1-0.1,1.9-0.1,2.9c0,20.2,7.6,20.9,18.4,20.9c3,0,5.9-0.1,8.8-0.6c9.2-1.4,10.7-9.9,10.7-22.4
		c0-22.8-11.4-19.4-22.4-20.6c-4.9-0.4-6.4-2.5-6.4-9.9c0-2.7,0.4-6.3,2-7.8c1.8-1.6,4.8-1.8,7.1-1.8h2.5c5.5,0,7.6,2.2,7.6,10.9
		H262.4z M335.6,138.6h-9.1l-10.2,61.7l-10.7-61.7h-10.4l-10.8,61.7h-0.3l-9.8-61.7h-9l12.3,73.3h12.9l9.7-56h0.2l9.4,56H323
		L335.6,138.6z M394.5,138.7h-14.8L367.1,193h-0.3l-12.7-54.3h-14.5v73.2h8.8l-0.4-61.3l15,61.3h8.1l14.8-61.7l-0.3,61.7h8.8V138.7z
		"/>
	<path id="path12" class="st1" d="M431.6,138.7h-9.2v73.2h31v-12.3h-21.8V138.7z M465,138.7h-7.8v10.5h7.8V138.7z M465,160.6h-7.8
		v51.3h7.8V160.6z M472.5,160.6v51.3h7.8v-29.8c0-8.1,1.8-12.4,7.3-12.4c5.3,0,5.6,3.1,5.8,10.2v32h8v-30.1c0-12,4.2-12.1,7.3-12.1
		c5.2,0,5.8,3.4,5.8,10.6v31.7h8v-34.1c0-12.6-3.4-17.8-11.6-17.8c-4.7,0-8.5,1.9-10.4,9.1h-0.2c-1.1-7.7-5.9-9.1-10.2-9.1
		c-4.4,0-7.8,1.8-10.1,8l-0.1-7.5H472.5z M537.8,138.7H530v10.5h7.8V138.7z M537.8,160.6H530v51.3h7.8V160.6z M566.3,160.6h-12.6
		v-11.5h-7.8v11.5h-4.2v9.2h4.2v27.6c0,12.3,3.4,15,11,15c8.4,0,10.8-5.4,10.8-17.6c0-0.9,0-1.8-0.1-2.6h-6.6v2.4
		c0,4.7-0.3,8.4-3.9,8.4c-3.5,0-3.5-2.9-3.5-7.3v-26h12.6V160.6z M593.2,195.4v1c0,6.3-3.2,7.1-6.5,7.1c-7.9,0-8.1-4.4-8.1-15.2H601
		l0.1-3.7c0-19.2-3-24.7-15.4-24.7c-12.4,0-14.9,7.2-14.9,25.2c0,20.1,1.8,27.3,15.8,27.3c7.3,0,14.5-1.1,14.5-15c0-0.7,0-1.3-0.1-2
		H593.2z M593.3,180.7h-14.7c0-0.5,0.1-1.1,0.1-1.6c0.2-8.8,1.7-10.3,7.2-10.3C592.3,168.8,593.3,171,593.3,180.7z M637.2,138.7h-8
		l-0.1,28.6c-2.4-6.6-5.6-7.3-10.2-7.3c-10.6,0-12.3,10.1-12.3,24.3c0,15.8,0.1,28,12.4,28c5.2,0,8-1.2,10.5-8.4l-0.1,7.8h7.8
		L637.2,138.7z M614.4,185.1v-0.9c0-8.9,0.6-14.9,7.1-14.9c7.8,0,7.8,6.7,7.8,17c0,3.8,0,10-1.3,13.4c-1.3,3.1-4.1,3.3-6.3,3.3
		c-3.4,0-6-0.9-6.8-6.8C614.4,192.6,614.4,188.8,614.4,185.1L614.4,185.1z"/>
	<path id="path14" d="M194.5,262.2c-0.9,0.9-1.8,1.6-2.8,2.1c-1,0.5-2,0.7-3,0.7c-1.7,0-3-0.5-4-1.5c-1-1-1.5-2.3-1.5-4
		c0-1.1,0.2-2.1,0.7-3c0.5-0.9,1.1-1.5,1.9-2s2-0.8,3.6-1.1c2.2-0.3,3.8-0.7,4.8-1.1l0-0.8c0-1.3-0.2-2.3-0.7-2.8
		c-0.7-0.8-1.7-1.2-3.1-1.2c-1.3,0-2.2,0.3-2.8,0.8c-0.6,0.5-1.1,1.5-1.4,2.9l-2.6-0.4c0.4-2.1,1.1-3.6,2.3-4.5
		c1.1-0.9,2.8-1.4,4.9-1.4c1.7,0,3,0.3,3.9,0.9c1,0.6,1.5,1.4,1.8,2.3c0.2,0.9,0.4,2.3,0.4,4v4.4c0,3.1,0.1,5,0.2,5.8
		c0.1,0.8,0.3,1.6,0.7,2.3H195C194.7,263.9,194.6,263.1,194.5,262.2L194.5,262.2z M194.2,254.9c-1,0.5-2.4,0.9-4.4,1.2
		c-1.1,0.2-1.9,0.4-2.4,0.7c-0.4,0.2-0.8,0.6-1,1.1c-0.2,0.5-0.4,1-0.4,1.6c0,0.9,0.3,1.7,0.9,2.2c0.6,0.6,1.4,0.8,2.4,0.8
		c1,0,1.8-0.2,2.6-0.7c0.8-0.5,1.4-1.2,1.8-2c0.4-0.8,0.6-2,0.6-3.6L194.2,254.9z M201.1,264.6v-19.4h2.4v2.7
		c0.6-1.1,1.3-1.9,2.1-2.4c0.8-0.5,1.8-0.8,2.9-0.8c0.8,0,1.6,0.2,2.4,0.5c0.7,0.3,1.3,0.8,1.7,1.3c0.4,0.5,0.8,1.2,1,2.1
		c0.2,0.9,0.3,2.2,0.3,4v11.9h-2.7v-11.8c0-1.4-0.1-2.5-0.4-3.1c-0.2-0.7-0.6-1.2-1.1-1.5c-0.5-0.4-1.1-0.5-1.8-0.5
		c-1.3,0-2.3,0.5-3.1,1.4c-0.8,1-1.2,2.6-1.2,4.9v10.6H201.1z M226.9,264.6v-26.7h2.9v23.6h10.8v3.2H226.9z M244,264.6v-26.7h3
		l11.5,21v-21h2.8v26.7h-3l-11.5-21v21H244z M264.6,257l2.6-0.4c0.1,2,0.4,3.4,0.9,4.2c0.6,0.8,1.3,1.1,2.3,1.1
		c0.7,0,1.3-0.2,1.8-0.6c0.5-0.4,0.9-0.9,1.1-1.4c0.3-0.8,0.4-2,0.4-3.6v-18.4h2.9v18.2c0,3.3-0.5,5.6-1.6,6.9c-1.1,1.4-2.6,2-4.5,2
		c-1.9,0-3.3-0.6-4.3-1.8C265.2,261.9,264.6,259.8,264.6,257L264.6,257z M289.9,264.6v-26.7h8.2c1.7,0,3,0.3,4,0.8
		c1,0.5,1.8,1.3,2.4,2.4c0.6,1.1,0.9,2.3,0.9,3.6c0,1.2-0.3,2.3-0.8,3.3c-0.5,1-1.3,1.8-2.3,2.4c1.3,0.5,2.3,1.3,3,2.4
		c0.7,1.1,1.1,2.5,1.1,4.1c0,1.6-0.3,3-1,4.3c-0.7,1.2-1.5,2.1-2.7,2.7c-1.1,0.6-2.6,0.8-4.6,0.8L289.9,264.6z M292.8,249.1h4.7
		c1.2,0,2.1-0.1,2.6-0.3c0.8-0.3,1.3-0.7,1.7-1.3c0.4-0.6,0.6-1.4,0.6-2.5c0-1-0.2-1.8-0.6-2.4c-0.4-0.6-0.9-1.1-1.5-1.3
		c-0.6-0.2-1.7-0.4-3.3-0.4h-4.4L292.8,249.1z M292.8,261.5h5.4c1.2,0,2.1-0.1,2.7-0.3c0.8-0.3,1.5-0.8,1.9-1.6
		c0.4-0.7,0.6-1.6,0.6-2.7c0-1-0.2-1.9-0.6-2.6c-0.4-0.7-1-1.2-1.7-1.5c-0.7-0.3-1.8-0.5-3.3-0.5h-5.1L292.8,261.5z M310,264.6
		v-26.7h2.7v9.6c0.6-0.9,1.3-1.5,2.1-2c0.8-0.4,1.7-0.7,2.6-0.7c1.7,0,3,0.5,4,1.6c1,1.1,1.5,3,1.5,5.9v12.3h-2.7v-12.3
		c0-1.7-0.3-2.9-0.9-3.6c-0.6-0.7-1.4-1.1-2.5-1.1c-1.2,0-2.2,0.5-3,1.4s-1.2,2.6-1.2,5v10.6L310,264.6z M327,241.7v-3.8h2.7v3.8
		H327z M327,264.6v-19.4h2.7v19.4L327,264.6z M333.8,264.6v-26.7h2.7v26.7H333.8z M343.5,264.6l-4.8-19.4h2.8l2.5,11.2l0.9,4.2
		l0.8-4l2.5-11.3h2.8l2.4,11.2l0.8,3.7l0.9-3.7l2.7-11.2h2.6l-5,19.4h-2.8l-2.5-11.6l-0.6-3.3l-3.2,14.9L343.5,264.6z M373.1,262.2
		c-0.9,0.9-1.8,1.6-2.8,2.1c-1,0.5-2,0.7-3,0.7c-1.7,0-3-0.5-4-1.5c-1-1-1.5-2.3-1.5-4c0-1.1,0.2-2.1,0.7-3c0.5-0.9,1.1-1.5,1.9-2
		c0.8-0.5,2-0.8,3.6-1.1c2.2-0.3,3.8-0.7,4.8-1.1l0-0.8c0-1.3-0.2-2.3-0.7-2.8c-0.7-0.8-1.7-1.2-3.1-1.2c-1.3,0-2.2,0.3-2.8,0.8
		c-0.6,0.5-1.1,1.5-1.4,2.9l-2.6-0.4c0.4-2.1,1.1-3.6,2.3-4.5c1.1-0.9,2.8-1.4,4.9-1.4c1.7,0,3,0.3,3.9,0.9c1,0.6,1.5,1.4,1.8,2.3
		c0.2,0.9,0.4,2.3,0.4,4v4.4c0,3.1,0.1,5,0.2,5.8c0.1,0.8,0.3,1.6,0.7,2.3h-2.8C373.3,263.9,373.2,263.1,373.1,262.2L373.1,262.2z
		 M372.9,254.9c-1,0.5-2.4,0.9-4.4,1.2c-1.1,0.2-1.9,0.4-2.4,0.7c-0.4,0.2-0.8,0.6-1,1.1c-0.2,0.5-0.4,1-0.4,1.6
		c0,0.9,0.3,1.7,0.9,2.2c0.6,0.6,1.4,0.8,2.4,0.8c1,0,1.8-0.2,2.6-0.7c0.8-0.5,1.4-1.2,1.8-2c0.4-0.8,0.6-2,0.6-3.6L372.9,254.9z
		 M379.7,264.6v-19.4h2.4v2.9c0.6-1.4,1.2-2.3,1.7-2.7c0.5-0.4,1.1-0.7,1.7-0.7c0.9,0,1.8,0.4,2.7,1.1l-0.9,3
		c-0.7-0.5-1.3-0.7-2-0.7c-0.6,0-1.1,0.2-1.6,0.6c-0.5,0.4-0.8,1-1,1.7c-0.3,1.3-0.5,2.6-0.5,4v10.1L379.7,264.6z M400.3,262.2
		c-0.9,0.9-1.8,1.6-2.8,2.1c-1,0.5-2,0.7-3,0.7c-1.7,0-3-0.5-4-1.5c-1-1-1.5-2.3-1.5-4c0-1.1,0.2-2.1,0.7-3c0.5-0.9,1.1-1.5,1.9-2
		s2-0.8,3.6-1.1c2.2-0.3,3.8-0.7,4.8-1.1l0-0.8c0-1.3-0.2-2.3-0.7-2.8c-0.7-0.8-1.7-1.2-3.1-1.2c-1.3,0-2.2,0.3-2.8,0.8
		c-0.6,0.5-1.1,1.5-1.4,2.9l-2.6-0.4c0.4-2.1,1.1-3.6,2.3-4.5c1.1-0.9,2.8-1.4,4.9-1.4c1.7,0,3,0.3,3.9,0.9c1,0.6,1.5,1.4,1.8,2.3
		c0.2,0.9,0.4,2.3,0.4,4v4.4c0,3.1,0.1,5,0.2,5.8c0.1,0.8,0.3,1.6,0.7,2.3h-2.8C400.6,263.9,400.4,263.1,400.3,262.2L400.3,262.2z
		 M400.1,254.9c-1,0.5-2.4,0.9-4.4,1.2c-1.1,0.2-1.9,0.4-2.4,0.7c-0.4,0.2-0.8,0.6-1,1.1c-0.2,0.5-0.4,1-0.4,1.6
		c0,0.9,0.3,1.7,0.9,2.2c0.6,0.6,1.4,0.8,2.4,0.8c1,0,1.8-0.2,2.6-0.7c0.8-0.5,1.4-1.2,1.8-2c0.4-0.8,0.6-2,0.6-3.6L400.1,254.9z
		 M426.2,254.1V251l9.3,0v9.9c-1.4,1.4-2.9,2.4-4.4,3.1c-1.5,0.7-3.1,1-4.7,1c-2.1,0-4-0.5-5.7-1.6c-1.7-1.1-3-2.6-4-4.7
		c-1-2.1-1.5-4.5-1.5-7.4c0-2.9,0.5-5.5,1.5-7.6c1-2.2,2.3-3.8,3.9-4.8c1.6-1,3.5-1.5,5.6-1.5c1.6,0,3,0.3,4.2,0.9
		c1.2,0.6,2.2,1.4,3,2.5c0.8,1.1,1.4,2.6,1.8,4.5l-2.6,0.9c-0.4-1.5-0.8-2.6-1.3-3.4c-0.5-0.7-1.2-1.3-2.1-1.8
		c-0.9-0.4-1.9-0.6-3-0.6c-1.6,0-3,0.4-4.1,1.2c-1.2,0.8-2.1,2-2.8,3.6c-0.7,1.6-1,3.6-1,6c0,3.6,0.7,6.2,2.2,8
		c1.5,1.8,3.4,2.7,5.8,2.7c1.1,0,2.3-0.3,3.5-0.8c1.2-0.5,2.1-1.2,2.8-2v-5L426.2,254.1z M439.3,264.6v-19.4h2.4v2.9
		c0.6-1.4,1.2-2.3,1.7-2.7c0.5-0.4,1.1-0.7,1.7-0.7c0.9,0,1.8,0.4,2.7,1.1l-0.9,3c-0.7-0.5-1.3-0.7-2-0.7c-0.6,0-1.1,0.2-1.6,0.6
		c-0.5,0.4-0.8,1-1,1.7c-0.3,1.3-0.5,2.6-0.5,4v10.1L439.3,264.6z M448.5,254.9c0-3.3,0.7-5.9,2.1-7.6c1.4-1.7,3.2-2.6,5.3-2.6
		c2.1,0,3.9,0.9,5.3,2.6c1.4,1.7,2.1,4.1,2.1,7.4c0,3.5-0.7,6.1-2.1,7.8c-1.4,1.7-3.2,2.6-5.3,2.6c-2.1,0-3.9-0.9-5.3-2.6
		C449.2,260.8,448.5,258.3,448.5,254.9L448.5,254.9z M451.2,254.9c0,2.5,0.5,4.4,1.4,5.6c0.9,1.2,2,1.8,3.4,1.8
		c1.3,0,2.4-0.6,3.3-1.9c0.9-1.2,1.4-3.1,1.4-5.6c0-2.5-0.5-4.3-1.4-5.6c-0.9-1.2-2-1.8-3.4-1.8c-1.3,0-2.4,0.6-3.3,1.8
		C451.7,250.6,451.2,252.5,451.2,254.9L451.2,254.9z M476.9,264.6v-2.8c-0.6,1.1-1.4,1.9-2.2,2.5c-0.8,0.5-1.8,0.8-2.8,0.8
		c-1.3,0-2.3-0.3-3.2-1c-0.9-0.7-1.5-1.5-1.8-2.6c-0.3-1-0.4-2.4-0.4-4.2v-12h2.7V256c0,2,0.1,3.3,0.3,4c0.2,0.7,0.6,1.2,1.1,1.6
		c0.5,0.4,1.2,0.6,1.9,0.6c1.3,0,2.3-0.5,3.2-1.6c0.7-0.9,1.1-2.6,1.1-5v-10.4h2.7v19.4L476.9,264.6z M483.5,272v-26.8h2.5v2.5
		c0.6-1,1.3-1.8,2-2.3c0.7-0.5,1.6-0.7,2.6-0.7c1.3,0,2.4,0.4,3.4,1.1c1,0.7,1.8,1.9,2.4,3.4c0.6,1.5,0.9,3.3,0.9,5.5
		c0,3.3-0.7,5.8-2.1,7.6c-1.4,1.8-3,2.7-4.9,2.7c-0.8,0-1.6-0.2-2.3-0.6c-0.7-0.4-1.3-1-1.9-1.8v9.4H483.5z M485.9,255
		c0,2.5,0.4,4.3,1.3,5.5c0.8,1.2,1.9,1.8,3,1.8c1.1,0,2.1-0.6,3-1.8c0.9-1.2,1.3-3.1,1.3-5.7c0-2.5-0.4-4.4-1.3-5.6
		c-0.8-1.2-1.9-1.8-3.1-1.8c-1.1,0-2.1,0.7-3,2C486.4,250.7,485.9,252.6,485.9,255L485.9,255z M525,255.2l2.9,0.9
		c-0.6,3-1.8,5.2-3.4,6.7c-1.6,1.5-3.6,2.2-5.9,2.2c-2,0-3.8-0.5-5.2-1.5c-1.4-1-2.6-2.6-3.5-4.8c-0.9-2.2-1.4-4.8-1.4-7.7
		c0-2.9,0.5-5.4,1.4-7.5c0.9-2,2.2-3.6,3.7-4.6c1.6-1,3.3-1.6,5.2-1.6c2.1,0,3.9,0.7,5.4,2c1.5,1.3,2.6,3.3,3.2,5.8l-2.8,0.8
		c-1-3.7-2.9-5.6-5.8-5.6c-1.5,0-2.7,0.4-3.8,1.1c-1.1,0.7-1.9,1.9-2.6,3.5c-0.6,1.6-1,3.6-1,6c0,3.7,0.6,6.4,1.9,8.2
		c1.3,1.8,3,2.7,5.1,2.7c1.6,0,2.9-0.6,4.1-1.7C523.8,259.2,524.6,257.5,525,255.2L525,255.2z M530.1,254.9c0-3.3,0.7-5.9,2.1-7.6
		c1.4-1.7,3.2-2.6,5.3-2.6c2.1,0,3.9,0.9,5.3,2.6c1.4,1.7,2.1,4.1,2.1,7.4c0,3.5-0.7,6.1-2.1,7.8c-1.4,1.7-3.2,2.6-5.3,2.6
		c-2.1,0-3.9-0.9-5.3-2.6C530.9,260.8,530.1,258.3,530.1,254.9L530.1,254.9z M532.9,254.9c0,2.5,0.5,4.4,1.4,5.6
		c0.9,1.2,2,1.8,3.4,1.8c1.3,0,2.4-0.6,3.3-1.9c0.9-1.2,1.4-3.1,1.4-5.6c0-2.5-0.5-4.3-1.4-5.6c-0.9-1.2-2-1.8-3.4-1.8
		c-1.3,0-2.4,0.6-3.3,1.8C533.3,250.6,532.9,252.5,532.9,254.9L532.9,254.9z M548.2,264.6v-19.4h2.4v2.7c0.5-1,1.2-1.8,2.1-2.3
		c0.8-0.5,1.8-0.8,2.7-0.8c1.1,0,2.1,0.3,2.8,0.9c0.8,0.6,1.3,1.4,1.6,2.5c0.6-1.1,1.4-2,2.2-2.5c0.8-0.6,1.7-0.9,2.7-0.9
		c1.5,0,2.7,0.5,3.6,1.5c0.9,1,1.3,2.7,1.3,5v13.3H567v-12.2c0-1.4-0.1-2.4-0.3-2.9c-0.2-0.6-0.5-1-1-1.3c-0.5-0.3-1-0.5-1.5-0.5
		c-1.2,0-2.1,0.5-2.8,1.4c-0.7,0.9-1.1,2.4-1.1,4.3v11.2h-2.7V252c0-1.6-0.2-2.7-0.7-3.4c-0.5-0.7-1.2-1-2-1c-1.2,0-2.2,0.5-2.9,1.5
		c-0.7,1-1.1,2.8-1.1,5.4v10H548.2z M573.7,272v-26.8h2.5v2.5c0.6-1,1.3-1.8,2-2.3c0.7-0.5,1.6-0.7,2.6-0.7c1.3,0,2.4,0.4,3.4,1.1
		c1,0.7,1.8,1.9,2.4,3.4c0.6,1.5,0.9,3.3,0.9,5.5c0,3.3-0.7,5.8-2.1,7.6c-1.4,1.8-3,2.7-4.9,2.7c-0.8,0-1.6-0.2-2.3-0.6
		c-0.7-0.4-1.3-1-1.9-1.8v9.4H573.7z M576.1,255c0,2.5,0.4,4.3,1.3,5.5c0.8,1.2,1.9,1.8,3,1.8c1.1,0,2.1-0.6,3-1.8
		c0.9-1.2,1.3-3.1,1.3-5.7c0-2.5-0.4-4.4-1.3-5.6c-0.8-1.2-1.9-1.8-3.1-1.8c-1.1,0-2.1,0.7-3,2C576.5,250.7,576.1,252.6,576.1,255
		L576.1,255z M601,262.2c-0.9,0.9-1.8,1.6-2.8,2.1c-1,0.5-2,0.7-3,0.7c-1.7,0-3-0.5-4-1.5c-1-1-1.5-2.3-1.5-4c0-1.1,0.2-2.1,0.7-3
		c0.5-0.9,1.1-1.5,1.9-2c0.8-0.5,2-0.8,3.6-1.1c2.2-0.3,3.8-0.7,4.8-1.1l0-0.8c0-1.3-0.2-2.3-0.7-2.8c-0.7-0.8-1.7-1.2-3.1-1.2
		c-1.3,0-2.2,0.3-2.8,0.8c-0.6,0.5-1.1,1.5-1.4,2.9l-2.6-0.4c0.4-2.1,1.1-3.6,2.3-4.5c1.1-0.9,2.8-1.4,4.9-1.4c1.7,0,3,0.3,3.9,0.9
		c1,0.6,1.5,1.4,1.8,2.3c0.2,0.9,0.4,2.3,0.4,4v4.4c0,3.1,0.1,5,0.2,5.8c0.1,0.8,0.3,1.6,0.7,2.3h-2.8
		C601.3,263.9,601.1,263.1,601,262.2L601,262.2z M600.8,254.9c-1,0.5-2.4,0.9-4.4,1.2c-1.1,0.2-1.9,0.4-2.4,0.7
		c-0.4,0.2-0.8,0.6-1,1.1c-0.2,0.5-0.4,1-0.4,1.6c0,0.9,0.3,1.7,0.9,2.2c0.6,0.6,1.4,0.8,2.4,0.8c1,0,1.8-0.2,2.6-0.7
		c0.8-0.5,1.4-1.2,1.8-2c0.4-0.8,0.6-2,0.6-3.6L600.8,254.9z M607.7,264.6v-19.4h2.4v2.7c0.6-1.1,1.3-1.9,2.1-2.4
		c0.8-0.5,1.8-0.8,2.9-0.8c0.8,0,1.6,0.2,2.4,0.5c0.7,0.3,1.3,0.8,1.7,1.3c0.4,0.5,0.8,1.2,1,2.1c0.2,0.9,0.3,2.2,0.3,4v11.9h-2.7
		v-11.8c0-1.4-0.1-2.5-0.4-3.1c-0.2-0.7-0.6-1.2-1.1-1.5c-0.5-0.4-1.1-0.5-1.8-0.5c-1.3,0-2.3,0.5-3.1,1.4c-0.8,1-1.2,2.6-1.2,4.9
		v10.6H607.7z M624.7,272.1l-0.3-3.1c0.6,0.2,1.1,0.3,1.5,0.3c0.6,0,1-0.1,1.4-0.3c0.4-0.2,0.7-0.6,0.9-1.1c0.1-0.2,0.4-1.2,1.1-3.2
		l-6-19.4h2.9l3.3,11.2c0.4,1.4,0.8,2.9,1.2,4.5c0.3-1.5,0.7-3,1.1-4.4l3.4-11.3h2.7l-6,19.7c-0.8,2.6-1.4,4.3-1.9,5.1
		c-0.5,0.9-1,1.5-1.5,1.8c-0.6,0.4-1.2,0.6-2,0.6C625.9,272.5,625.3,272.3,624.7,272.1L624.7,272.1z"/>
</g>
</svg>
